<svg width="180" height="72" viewBox="0 0 180 72" fill="none" xmlns="http://www.w3.org/2000/svg" role="img" aria-labelledby="title desc">
  <title id="title">BathWorks Collective brand signature</title>
  <desc id="desc">A freeform premium bathroom remodeling brandmark with architectural curves, warm brass linework, and a flowing water signature.</desc>
  <path d="M18 51C33.5 28.5 49.5 18 66 19.5C83.5 21.1 89 39.5 74.5 46.5C62.8 52.15 45.5 47 36.5 39.4" stroke="url(#deep)" stroke-width="5.6" stroke-linecap="round"/>
  <path d="M55 55.5C70.2 35.8 83.8 26.4 96 27.2C110.8 28.2 112.6 42.9 99.5 50.1C88.9 55.9 76.1 54.6 62.2 46.8" stroke="url(#gold)" stroke-width="4.4" stroke-linecap="round"/>
  <path d="M105 25C112.5 42.2 120.7 51 129.8 51.5C139.4 52.05 146.35 43.45 150.7 25" stroke="url(#goldSoft)" stroke-width="4.4" stroke-linecap="round"/>
  <path d="M18 57.5C34.5 51.4 50.9 51.4 67.2 57.5C83.7 63.7 100.15 63.7 116.6 57.5C132.85 51.45 148.2 51.6 162.5 57.95" stroke="url(#water)" stroke-width="2.6" stroke-linecap="round"/>
  <path d="M28 21.5C47.1 9.1 67.4 8.2 88.8 18.8" stroke="url(#mist)" stroke-width="1.8" stroke-linecap="round" opacity=".72"/>
  <path d="M112 18.5C122.2 12.5 133.6 11.9 146.2 16.7" stroke="url(#mist)" stroke-width="1.8" stroke-linecap="round" opacity=".62"/>
  <circle cx="159.5" cy="24.5" r="4.5" fill="url(#dot)"/>
  <path d="M154 24.5H168" stroke="url(#goldSoft)" stroke-width="2" stroke-linecap="round"/>
  <path d="M15 61H33M144 61H166" stroke="#704326" stroke-width="1.6" stroke-linecap="round" opacity=".42"/>
  <defs>
    <linearGradient id="deep" x1="18" y1="18" x2="80" y2="56" gradientUnits="userSpaceOnUse">
      <stop stop-color="#3B261B"/>
      <stop offset=".45" stop-color="#704326"/>
      <stop offset="1" stop-color="#B76743"/>
    </linearGradient>
    <linearGradient id="gold" x1="55" y1="27" x2="108" y2="56" gradientUnits="userSpaceOnUse">
      <stop stop-color="#FFF0B8"/>
      <stop offset=".45" stop-color="#D6A346"/>
      <stop offset="1" stop-color="#8C542D"/>
    </linearGradient>
    <linearGradient id="goldSoft" x1="105" y1="18" x2="168" y2="52" gradientUnits="userSpaceOnUse">
      <stop stop-color="#F4D990"/>
      <stop offset=".54" stop-color="#C99535"/>
      <stop offset="1" stop-color="#704326"/>
    </linearGradient>
    <linearGradient id="water" x1="18" y1="54" x2="163" y2="61" gradientUnits="userSpaceOnUse">
      <stop stop-color="#704326"/>
      <stop offset=".24" stop-color="#C99535"/>
      <stop offset=".52" stop-color="#FFF0B8"/>
      <stop offset=".78" stop-color="#C99535"/>
      <stop offset="1" stop-color="#704326"/>
    </linearGradient>
    <linearGradient id="mist" x1="28" y1="11" x2="146" y2="20" gradientUnits="userSpaceOnUse">
      <stop stop-color="#B76743"/>
      <stop offset=".5" stop-color="#E9C878"/>
      <stop offset="1" stop-color="#8C542D"/>
    </linearGradient>
    <radialGradient id="dot" cx="0" cy="0" r="1" gradientUnits="userSpaceOnUse" gradientTransform="translate(158.4 23.5) rotate(43.6028) scale(9.06035)">
      <stop stop-color="#FFF7D8"/>
      <stop offset=".5" stop-color="#C99535"/>
      <stop offset="1" stop-color="#704326"/>
    </radialGradient>
  </defs>
</svg>
